<?xml version="1.0" encoding="UTF-8"?>
<svg width="100px" height="99px" viewBox="0 0 100 99" version="1.1" xmlns="http://www.w3.org/2000/svg" xmlns:xlink="http://www.w3.org/1999/xlink">
    <!-- Generator: Sketch 51.3 (57544) - http://www.bohemiancoding.com/sketch -->
    <title>Group 3</title>
    <desc>Created with Sketch.</desc>
    <defs>
        <polygon id="path-1" points="0 0.0004 100 0.0004 100 98.05498 0 98.05498"></polygon>
    </defs>
    <g id="Page-1" stroke="none" stroke-width="1" fill="none" fill-rule="evenodd">
        <g id="Artboard" transform="translate(-670.000000, -778.000000)">
            <g id="Group-3" transform="translate(670.000000, 778.000000)">
                <mask id="mask-2" fill="white">
                    <use xlink:href="#path-1"></use>
                </mask>
                <g id="Clip-2"></g>
                <path d="M23.4641,82.4335 C23.8941,82.0345 23.9491,80.9045 23.1521,80.8715 C23.3251,81.3255 22.7911,82.4845 23.4641,82.4335 Z M94.0331,52.1445 C93.2941,54.1075 92.9971,56.5185 92.4761,58.7015 C91.0651,58.6525 91.4921,56.7685 89.9751,56.8285 C88.9861,56.9845 88.6981,57.8425 88.4141,58.7015 C88.3671,60.7245 89.8401,61.2305 90.2891,62.7615 C90.2801,64.3145 89.3271,64.9215 88.7281,65.8835 C87.9451,65.0005 88.1361,63.1435 86.8501,62.7615 C84.8121,62.5925 84.5191,64.1755 84.0431,65.5715 C83.7861,66.4545 84.4831,66.3795 84.3551,67.1325 C84.5491,68.2915 85.2341,68.9595 85.6081,69.9435 C86.7531,70.8265 85.4921,71.2725 85.2911,72.4415 C84.0851,72.2945 84.3081,70.7185 83.7311,69.9435 C83.2831,69.1395 82.9971,68.1755 81.8581,68.0695 C80.0491,67.7135 79.7771,68.9055 79.0471,69.6305 C79.0151,70.9115 78.9851,72.1895 79.3601,73.0645 C79.8401,74.5645 81.0201,75.3595 81.5461,76.8125 C80.1521,77.2935 79.4911,78.5055 78.4231,79.3105 C77.8141,78.6725 77.8801,77.3565 76.8601,77.1235 C75.5561,77.6215 75.3491,79.7945 76.2381,80.8715 C75.7211,81.7085 74.6521,81.9935 74.0511,82.7455 C73.0491,82.7875 72.6881,84.4125 71.8621,83.6805 C72.0061,81.5645 71.1181,80.4705 69.6801,79.9345 C70.3111,78.7945 71.5271,78.2465 72.4881,77.4375 C73.8311,75.1355 75.9531,73.6175 77.1721,71.1925 C78.9001,69.3775 80.0241,66.9635 81.5461,64.9475 C82.5851,62.3435 83.9771,60.0925 85.2911,57.7645 C86.0571,54.9925 86.7961,52.1945 87.1631,49.0215 L87.1631,41.8415 C86.2121,36.6525 85.0321,31.6915 82.4851,28.1005 C82.1401,26.0495 81.6231,24.1735 80.9221,22.4815 C79.8101,20.2595 77.5941,19.1465 76.2381,17.1705 C74.5651,17.8955 73.6751,19.3985 72.1791,20.2945 C71.6851,21.0515 71.0611,21.6755 70.3041,22.1685 C70.1291,22.6185 69.8171,22.9295 69.3651,23.1055 C69.2561,23.4615 68.8151,23.8965 68.7411,23.4165 C68.8101,17.9385 68.0761,13.2605 68.1191,7.8065 C73.7741,8.4995 80.4731,8.1485 86.2281,8.7415 C85.1011,10.4255 82.9311,11.0665 81.8581,12.8015 C82.2661,14.1635 83.4141,14.7835 83.7311,16.2375 C85.6631,19.2985 86.9991,22.9595 89.0381,25.9145 C90.5411,31.0765 92.4711,35.8065 94.0331,40.9045 L94.0331,52.1445 Z M65.6221,88.6775 C65.7531,86.8805 64.6851,86.2845 63.7461,85.5545 C62.9631,85.5025 62.7691,86.0345 62.4971,86.4925 C62.3181,87.0395 62.8761,88.3265 62.1881,88.3655 C62.2021,89.7375 62.4881,91.3715 60.9351,91.1755 C60.9581,89.6985 60.9861,88.2105 59.9981,87.7415 C58.9701,87.7515 58.8041,88.6275 58.7501,89.6135 C58.0291,88.7715 58.6391,86.6015 58.4401,85.2435 C62.2381,84.3585 65.3811,82.8185 68.1191,80.8715 C68.9101,81.2875 67.6621,82.2565 67.8071,83.0575 C67.7971,84.4195 68.0761,85.4925 68.4301,86.4925 C68.1091,87.8355 66.8461,88.2395 65.6221,88.6775 Z M99.9681,43.0875 C99.6861,40.2505 98.8601,37.9495 98.4071,35.2835 C97.1021,33.3635 96.7441,30.4935 95.5941,28.4125 C94.2581,23.2995 91.6201,19.4845 89.3501,15.3005 C90.4001,13.7455 92.0551,12.7995 93.4141,11.5525 C94.4061,9.8405 96.8001,9.5325 96.8451,6.8685 C96.9151,5.2395 95.9081,4.6795 95.2841,3.7465 C94.8611,3.4395 94.6601,2.9125 94.3461,2.4975 C93.9771,2.0345 93.1681,2.0095 92.7851,1.5605 C88.4901,1.7405 83.4571,1.1815 79.6731,1.8715 C76.0991,1.6315 73.4461,2.3055 69.9921,2.1855 C68.1391,1.9975 67.2091,2.7335 65.3111,2.4975 C63.8401,2.7975 62.0611,2.7875 61.8751,4.3695 C61.1421,4.7235 61.6571,6.4315 62.1881,6.5565 C62.4291,7.8935 62.1411,7.8295 62.4971,9.0545 L62.4971,14.9865 C62.2791,16.1455 63.0311,16.3285 62.8121,17.4845 L62.8121,26.2285 C62.7131,29.3405 63.5191,31.5545 65.9331,32.1605 C67.9291,32.4945 67.9161,30.8155 69.3651,30.5995 C70.0681,29.6345 70.9021,28.8015 71.8621,28.1005 C73.8551,26.6535 75.3361,24.7045 77.7961,23.7295 C79.4661,27.2655 79.9891,31.9465 81.2321,35.9075 L81.2321,50.2715 C80.2641,56.6895 76.7961,60.6125 74.3611,65.5715 C72.4481,67.6705 70.7461,70.6305 69.0531,72.4415 C68.2241,73.3295 67.6571,73.9045 66.8691,74.6265 C65.8861,75.5265 64.8231,76.3375 63.7461,77.1235 C61.8771,77.9605 60.2231,79.0115 58.4401,79.9345 C57.2651,80.1165 56.3601,80.5635 55.9421,81.4965 C54.4811,81.3905 54.1011,82.3605 53.4431,83.0575 C52.9361,85.0815 53.1151,88.0865 53.1321,90.8635 C53.1451,93.6795 52.7841,96.7295 54.6911,97.7325 C54.9321,97.8015 55.3091,97.7405 55.3171,98.0445 C57.2111,98.1675 57.9951,97.1875 58.7501,96.1715 C59.1621,96.9955 59.7771,97.1285 60.6251,96.7955 C61.2621,96.6005 60.7101,95.2185 61.8751,95.5475 C63.0191,94.9045 63.1371,96.0965 64.6851,95.8585 C66.4091,94.1495 68.5471,92.8535 70.9281,91.8005 C71.7351,90.8355 72.8421,90.1735 74.0511,89.6135 C74.9301,88.7225 75.9431,87.9645 77.1721,87.4285 C77.9681,86.4545 79.1861,85.9015 80.2951,85.2435 C81.0611,84.2365 81.8601,83.2705 83.1091,82.7455 C84.8361,80.9365 86.7511,79.3125 88.7281,77.7485 C90.1351,75.8265 91.5101,73.8705 93.0981,72.1275 C93.3221,70.5805 94.5241,70.0135 94.6581,68.3815 C95.7341,67.5825 95.5411,65.5145 96.5331,64.6325 C96.7301,63.0625 97.1521,61.7165 97.7811,60.5765 C98.3221,59.2425 98.6391,57.6835 99.3421,56.5165 C99.9531,52.4425 100.0681,47.8755 99.9681,43.0875 Z M36.8931,11.5525 C36.1881,11.8855 35.5231,12.2605 35.0201,12.8015 C33.5201,13.4865 32.5241,14.6765 31.2731,15.6105 C26.8281,19.9105 22.6191,24.4435 18.4691,29.0375 C16.3731,31.2065 15.0821,34.1855 13.4751,36.8445 C13.5711,37.5685 13.4261,38.0425 13.1601,38.4055 C12.9491,46.8395 13.3201,54.6955 15.3501,60.8865 C15.8731,61.6125 16.8481,61.8875 17.5341,62.4495 C17.8761,64.0835 18.6061,65.3315 19.4061,66.5075 C19.9071,67.0485 20.5781,67.4225 21.2811,67.7555 C21.9211,69.6175 23.4241,70.6115 24.4021,72.1275 C25.4631,73.5665 26.6701,74.8555 27.8381,76.1895 C29.9581,75.2875 30.8641,73.1775 32.5241,71.8155 C33.0301,70.8655 34.0901,70.4695 34.3941,69.3175 C35.0311,69.2265 35.0101,68.4725 35.6451,68.3815 C35.7361,68.1045 36.4901,67.0145 36.5811,67.7555 L36.5811,87.1175 C29.4311,88.3265 22.7291,86.4065 15.9721,86.1795 C16.2361,85.1955 17.5831,85.2915 17.8471,84.3055 C18.8961,84.5035 19.4471,85.2035 20.9681,84.9295 C21.2241,84.8705 21.2791,84.6175 21.5941,84.6195 C22.4551,84.5425 22.3031,83.4565 22.8421,83.0575 C22.3081,79.7415 21.4431,76.7515 21.2811,73.0645 C20.7791,71.4875 20.1631,70.0195 18.4691,69.6305 C17.8531,70.0545 17.2581,70.4985 17.5341,71.8155 C17.7741,72.9935 17.1521,73.3085 17.2231,74.3135 C14.9821,72.0755 17.8401,64.7455 14.4131,63.6985 C12.6261,63.4755 11.8951,64.3025 11.6001,65.5715 C10.4091,64.0565 11.0781,60.6805 10.3521,58.7015 C8.7251,58.5325 8.7661,60.0315 8.7911,61.5105 C7.7931,60.4295 7.8531,58.2855 7.5431,56.5165 C8.5411,51.4795 8.5571,45.4585 10.0421,40.9045 C9.2621,40.6835 8.7571,40.5955 8.1651,41.2145 C7.6151,41.1275 7.2011,42.6855 6.9191,41.8415 C6.9961,36.5055 8.6931,32.7925 10.6641,29.3515 C12.2631,25.6405 14.9371,23.0065 17.5341,20.2945 C20.1041,17.4535 22.8241,14.7615 25.6511,12.1775 C28.9671,10.0805 33.2591,8.9575 36.8931,7.1805 L37.2051,7.1805 C38.4001,7.4465 38.2481,9.0515 38.7661,9.9915 C38.6861,11.0525 37.3591,10.8745 36.8931,11.5525 Z M43.1391,5.9315 C42.3481,3.2885 41.3971,0.8035 38.7661,-0.0005 L37.2051,-0.0005 C32.0471,1.7085 27.4081,3.9395 22.5321,5.9315 C20.2041,7.9775 17.9261,10.0715 15.6591,12.1775 C13.6761,14.6675 11.2411,16.7065 9.4151,19.3585 C6.9571,21.3735 5.7331,24.6265 3.7961,27.1635 C3.3151,28.8705 2.6991,30.4395 1.9231,31.8475 C2.0201,33.0895 1.1961,33.4165 1.2991,34.6595 C0.7651,35.2725 0.9401,36.5905 0.3591,37.1575 C0.5121,38.5585 0.2021,39.4955 0.0461,40.5915 C-0.1809,49.6675 0.3931,57.9415 2.5471,64.6325 C4.2851,71.8445 9.4091,75.6735 13.7871,80.2455 C12.0431,81.5205 10.8501,83.3445 9.1021,84.6195 C9.0651,85.7245 8.7951,86.5975 7.8531,86.8045 C7.3231,87.5825 6.7651,88.3375 7.2311,89.3015 C7.5241,91.0885 9.7831,90.9115 10.9781,91.8005 C13.0091,91.9535 14.6851,92.4625 16.5961,92.7385 C19.8151,93.7865 23.7231,94.1475 27.5261,94.6095 C32.0831,94.4145 37.3011,94.9085 40.9521,94.6095 C42.6301,93.8075 42.8781,91.6895 43.7631,90.5515 C43.6941,81.0425 43.9791,71.1845 43.4491,62.1365 C42.8931,59.4685 42.7951,56.3405 39.7011,56.2025 C37.1551,55.8405 37.0361,57.9095 35.3321,58.3915 C34.4801,59.7205 33.0621,60.4925 32.2091,61.8245 C31.1621,62.9605 30.1001,64.0855 29.0881,65.2595 C28.7641,66.0795 27.8511,66.3115 27.5261,67.1325 C26.6131,67.3645 26.9231,68.8175 25.6511,68.6945 C24.7101,66.6185 23.6911,64.6175 22.5321,62.7615 C22.2111,61.6215 21.7541,60.6215 21.2811,59.6395 C21.3261,58.8615 20.7901,58.6705 20.6551,58.0775 C20.3711,57.5285 20.5481,56.5195 20.0331,56.2025 C18.8851,51.3155 19.0881,45.0725 19.0951,39.0305 C20.3031,36.8025 21.4401,34.5055 23.1521,32.7845 C28.2291,27.2445 33.1351,21.5335 39.3921,17.1705 C41.0141,15.7795 44.5091,16.2535 45.0121,13.7385 C45.6041,12.7585 44.9511,10.8025 44.6991,9.6785 C44.2251,8.3825 43.7461,7.0915 43.1391,5.9315 Z" id="Fill-1" fill="#A3CAD8" mask="url(#mask-2)"></path>
            </g>
        </g>
    </g>
</svg>