<?xml version="1.0" encoding="UTF-8"?>
<svg width="93px" height="105px" viewBox="0 0 93 105" version="1.1" xmlns="http://www.w3.org/2000/svg" xmlns:xlink="http://www.w3.org/1999/xlink">
    <!-- Generator: Sketch 51.3 (57544) - http://www.bohemiancoding.com/sketch -->
    <title>Group 3</title>
    <desc>Created with Sketch.</desc>
    <defs>
        <polygon id="path-1" points="0.000230062858 0 92.24 0 92.24 104.9999 0.000230062858 104.9999"></polygon>
    </defs>
    <g id="Page-1" stroke="none" stroke-width="1" fill="none" fill-rule="evenodd">
        <g id="Artboard" transform="translate(-674.000000, -995.000000)">
            <g id="Group-3" transform="translate(674.000000, 995.000000)">
                <mask id="mask-2" fill="white">
                    <use xlink:href="#path-1"></use>
                </mask>
                <g id="Clip-2"></g>
                <path d="M24.5305,54.5859 C24.6605,55.6469 25.7365,55.7649 26.3185,56.3769 C29.3425,55.8029 32.1025,53.4439 31.3895,50.1109 C28.3415,49.7289 25.1615,51.5779 24.5305,54.5859 Z M65.3925,46.8319 C65.6825,48.4319 67.5335,48.4719 68.9725,48.9179 C70.6725,48.9259 72.5405,49.1059 72.5525,47.4289 C71.1685,45.8599 67.0975,45.6759 65.3925,46.8319 Z M48.3895,45.3419 C47.1115,44.9279 46.7595,43.5919 46.6005,42.0579 C46.9525,41.7149 47.6575,41.7219 48.3895,41.7619 L48.3895,45.3419 Z M51.9695,36.3909 C49.0015,35.7109 50.0135,39.0049 48.3895,39.6719 C47.2385,39.5139 46.9335,40.2039 45.7045,39.9709 C44.4555,39.6339 44.8615,37.6329 43.3215,37.5829 C42.8605,38.0179 43.0575,39.1129 43.0235,39.9709 C43.7145,41.5689 44.1225,43.4439 44.8095,45.0419 C45.2655,46.9729 45.5315,49.0939 47.4955,49.5159 C48.5165,49.4409 48.1025,47.9369 48.9885,47.7279 C49.5075,47.7489 49.9175,47.6579 50.1805,47.4289 C50.3405,45.2019 50.9875,43.4629 51.0735,41.1629 C51.5435,41.1389 51.3075,40.4019 51.9695,40.5659 C52.0505,39.6949 51.2965,39.6519 51.3765,38.7769 C52.0635,38.4739 51.9905,37.4059 51.9695,36.3909 Z M26.3185,36.6899 C25.3735,36.6229 23.9505,35.4949 23.0355,36.3909 C21.6015,36.3539 20.3215,36.4599 20.0535,37.5829 L20.0535,38.7769 C22.1535,40.2029 26.2085,39.1659 26.3185,36.6899 Z M71.0615,32.8099 C71.9725,33.6599 76.3355,34.0359 76.4305,32.2149 C75.4485,32.0039 74.5225,31.7349 73.4495,31.6189 C72.6265,31.9879 71.0965,31.6539 71.0615,32.8099 Z M32.5825,27.1419 C32.4405,24.8919 30.2685,23.0519 28.4035,22.9679 C28.4035,23.5609 27.5935,23.3459 27.8075,24.1599 C28.0505,26.3519 30.1415,28.1309 32.5825,27.1419 Z M57.0425,40.5659 C54.6745,43.4699 53.3705,47.4379 50.4795,49.8139 C48.0065,50.2249 45.3005,50.4019 43.0235,51.0059 C42.7005,49.5379 42.2845,48.1679 41.5325,47.1329 C40.5345,46.2359 39.2595,45.6229 38.2495,44.7429 C38.0715,44.3179 38.1655,43.9709 37.9485,43.5509 C37.7345,43.1299 37.2805,42.6209 37.0555,41.7619 C37.0075,41.5739 37.1025,41.3519 37.0555,41.1629 C36.7485,39.9339 36.6705,36.8099 36.7595,34.3029 C37.7195,33.2759 37.9345,31.5029 39.1435,30.7239 C39.6965,29.3889 41.1035,28.9039 41.5325,27.4419 C46.1625,25.5509 52.6355,21.9509 58.8315,24.4589 C59.9035,25.4749 60.5995,26.8659 60.9195,28.6349 C60.5885,33.5729 58.8765,37.1319 57.0425,40.5659 Z M53.1655,62.3429 C53.6975,62.2579 53.7755,62.6239 53.4635,62.6409 C53.1135,64.3819 51.5125,64.8699 50.4795,65.9219 C49.2865,65.8239 48.8235,66.4529 47.4955,66.2199 C45.8845,65.5459 43.9915,65.1499 43.6175,63.2359 C46.7235,63.8779 50.9935,63.5839 53.1655,62.3429 Z M56.1475,19.6879 L49.8835,19.6879 C46.7975,20.3809 43.9525,21.3149 41.5325,22.6679 C39.0355,23.9539 37.0725,25.7719 34.9675,27.4419 C33.0105,29.9599 31.0515,32.4769 30.4935,36.3909 L30.4935,39.6719 C31.0545,43.0879 33.8235,44.2979 34.6695,47.4289 C35.8255,48.6559 37.4345,49.4339 38.5475,50.7099 C38.9005,51.1519 38.8085,52.0409 39.7415,51.9019 C39.5725,52.5119 38.8415,52.4859 39.4435,53.0969 C40.5605,52.8729 40.8955,53.4319 40.9345,54.2889 C41.4895,54.3309 41.9305,54.4859 42.1275,54.8869 L49.5835,54.8869 C50.3245,54.5329 51.3415,54.4529 52.2655,54.2889 C52.9725,54.1159 54.5615,53.3079 54.6555,54.2889 C54.4445,56.1689 51.8145,55.6229 50.1805,56.0789 L44.2165,56.0789 C43.2355,56.0959 43.0745,56.9259 41.8295,56.6729 C41.2005,56.2109 40.7465,55.5699 40.9345,54.2889 C40.6915,54.2319 40.6355,53.9899 40.3365,53.9899 C39.4475,54.5229 39.2135,56.1709 39.7415,57.2729 C39.6745,58.7309 40.6505,59.1479 40.6355,60.5529 C41.1895,61.5899 42.4345,61.9359 42.7205,63.2359 C42.5295,65.0219 43.5105,65.6339 43.9135,66.8179 C44.6265,67.2009 45.3395,67.5819 46.0055,68.0109 L49.2865,68.0109 C49.6305,67.7599 50.0855,67.6179 50.7775,67.7119 C51.9195,66.6649 53.8545,66.4119 54.3575,64.7279 C55.4255,63.7099 56.9505,63.1489 56.7445,60.8539 C56.0315,59.9099 54.5825,61.5579 54.3575,60.2529 C51.6315,58.9669 47.9535,60.1659 44.5115,59.9569 C43.5255,59.6899 43.2175,61.6139 42.7205,60.8539 C42.4045,60.0769 42.0005,59.3889 42.1275,58.1659 C43.1865,58.1989 43.2115,59.2709 44.5115,59.0609 C48.1575,59.0249 52.1175,59.3059 54.9515,58.4669 C55.0315,59.3379 54.2775,59.3809 54.3575,60.2529 L54.6555,60.2529 C54.8395,59.2419 56.5605,59.7749 56.4465,58.4669 C56.2235,57.2939 55.2825,56.8459 54.9515,55.7809 C56.5585,55.2129 55.7395,51.6029 55.5505,50.1109 C60.1975,44.0199 65.0965,38.1809 65.0965,27.4419 C64.2005,22.7679 60.8125,20.5889 56.1475,19.6879 Z M66.2895,17.8979 C66.8095,17.1009 68.2505,16.0529 67.4835,14.9139 C67.4145,14.6809 67.2305,14.5679 66.8845,14.6149 C66.6895,15.0179 66.2485,15.1709 65.6905,15.2119 C65.2455,16.7539 63.6915,17.1879 63.6065,19.0879 C64.4885,19.6819 65.4995,18.3399 66.2895,17.8979 Z M45.4085,17.0019 C45.7045,15.7379 45.9355,13.7399 45.4085,12.5259 C44.3015,11.9199 43.6605,12.7569 42.7205,13.1229 C42.5165,14.3229 43.0095,14.8259 43.0235,15.8089 C43.7835,16.2409 43.7765,17.4409 45.4085,17.0019 Z M85.6765,46.8319 C85.1265,47.6699 84.8585,48.7969 84.4845,49.8139 C84.1295,50.7509 83.4795,51.3929 83.2925,52.4989 C81.8365,53.7289 81.7055,56.2799 80.0095,57.2729 C79.4185,59.3649 77.7885,60.4199 76.7285,62.0459 C75.1845,63.0859 74.2785,64.7659 72.8525,65.9219 C72.5815,67.0449 72.2125,68.0659 71.6565,68.9069 C71.7545,70.7989 71.4075,73.1369 71.9565,74.5729 C71.7215,75.8009 72.4155,76.1039 72.2575,77.2579 C72.4385,78.0669 71.8765,79.6269 72.5525,79.9419 C72.3195,82.1659 72.9735,83.4999 72.8525,85.6099 C73.3225,86.1329 73.2515,87.1989 73.4495,87.9949 C73.6335,88.8059 73.0695,90.3639 73.7455,90.6819 C72.4855,92.3049 69.8545,92.5589 68.0765,93.6639 C65.7825,93.4579 64.2005,93.9629 62.1115,93.9629 C58.3765,94.6989 55.3765,96.1759 51.0735,96.3499 C46.9655,96.6089 43.3905,97.4139 39.4435,97.8399 C39.1295,94.3749 37.9265,91.7959 37.3545,88.5919 C36.3235,87.2369 35.7785,85.3949 34.3735,84.4149 C31.2575,84.1869 29.2555,85.0699 26.9155,85.6099 C23.5185,85.8299 20.8435,84.9239 18.2625,85.9079 C17.6065,82.9859 18.2895,78.7239 17.6665,75.7659 C20.5965,75.2179 23.3025,74.4409 23.9315,71.5909 C23.8905,70.7369 21.8835,71.8479 21.8425,70.9919 C20.9175,70.9649 20.1885,71.1269 19.7565,71.5909 C17.6845,71.3129 17.2235,72.6419 15.2815,72.4869 C14.5985,68.6939 15.1695,63.6429 14.9805,59.3599 C14.7595,58.4859 14.0785,58.0779 13.4885,57.5689 C12.9365,57.5259 13.3105,56.5589 12.8935,56.3769 C12.3845,56.3919 12.1225,56.1539 11.9975,55.7809 C10.0285,55.1639 6.7385,55.8679 4.8375,55.1829 C5.3845,51.4539 8.6975,50.4919 9.6125,47.1329 C11.7155,44.9589 13.5145,42.4829 14.9805,39.6719 C15.6185,36.0349 16.5355,32.6729 16.1735,28.0409 C16.9475,27.1229 16.8255,25.3069 17.9645,24.7559 C18.3025,23.5029 19.3775,22.9879 19.7565,21.7729 C20.3375,20.7659 20.9865,19.8259 21.2465,18.4929 C21.9855,17.6409 22.6105,16.6739 23.0355,15.5109 C24.3545,14.4409 25.5475,13.2469 26.6145,11.9319 C28.0465,11.4709 28.6015,10.1409 30.1945,9.8429 C30.8815,8.6409 32.8255,8.6949 33.7745,7.7539 C35.4405,7.5289 36.4355,6.6369 38.2495,6.5639 C39.4905,5.9159 41.5955,6.1289 43.0235,5.6669 L49.5835,5.6669 C50.0665,5.7509 50.0965,5.3839 50.4795,5.3669 C58.2355,6.2639 64.7825,8.3669 70.1675,11.6329 C75.1525,15.1019 80.6665,18.0339 84.1885,22.9679 C85.9285,29.5859 86.4665,38.6369 85.6765,46.8319 Z M91.0445,28.0409 C90.3515,27.4419 90.5515,25.9509 89.8535,25.3559 C89.6675,24.2469 89.0165,23.6089 88.6615,22.6679 C88.6695,21.0719 88.0235,20.1249 87.7685,18.7919 C85.9255,15.9599 83.5715,13.6399 81.5015,11.0349 C79.4595,9.7979 77.5845,8.3949 75.8365,6.8569 C70.3995,4.7379 66.2255,1.3569 60.0265,-0.0001 L49.5835,-0.0001 C49.2005,0.0159 49.1705,0.3839 48.6885,0.2979 C44.9235,0.5089 41.1205,0.6839 37.3545,0.8939 C36.6605,1.3939 35.7455,1.6729 34.6695,1.7869 C33.9745,2.2869 33.0615,2.5659 31.9855,2.6839 C29.8105,4.5819 26.8395,5.6929 24.8285,7.7539 C22.7145,9.7189 20.4955,11.5769 18.8595,14.0189 C16.8555,16.0899 15.1935,18.5059 14.0865,21.4749 C12.4305,23.9949 11.6625,27.4049 11.1025,31.0219 L11.1025,34.0039 C10.9985,35.7019 11.7275,36.5649 11.7015,38.1809 C11.4115,39.3829 10.3985,39.8599 9.6125,40.5659 C9.3225,41.7689 8.3075,42.2499 7.5265,42.9519 C6.5975,45.0109 4.7435,46.1399 3.9435,48.3219 C2.3145,49.6769 1.3475,51.6889 0.3665,53.6929 C-0.5315,56.3199 0.3195,59.4019 1.8575,60.5529 C3.7795,61.2169 7.1165,60.4609 9.0135,61.1499 C9.7265,64.9149 10.1685,68.9439 10.5095,73.0819 C11.0335,73.3519 11.0015,74.1799 11.7015,74.2739 C11.6475,75.1209 13.6515,73.9139 13.1925,75.1709 C12.6875,76.2549 12.4125,77.5709 12.2975,79.0489 C13.5415,82.8729 13.6815,87.8059 16.1735,90.3809 C18.7125,91.2269 21.9225,91.3989 25.4205,91.2789 C27.0855,90.8549 28.2755,89.9549 30.4935,90.0839 C32.9455,91.4099 32.4195,95.7179 34.0725,97.8399 C35.0025,100.7889 36.4925,103.1769 38.5475,104.9999 C45.8215,103.8219 52.9215,102.4699 59.7255,100.8239 C61.2185,100.2259 63.0645,99.9849 64.4985,99.3329 C65.5725,99.4099 65.9365,98.7809 66.8845,98.7339 C67.4715,98.2279 68.7315,98.3919 69.2705,97.8399 C71.0935,97.5699 73.0905,97.4849 74.3395,96.6459 C75.5285,96.7389 75.8415,95.9589 77.0285,96.0509 C77.5985,95.5289 78.8625,95.6999 78.8175,94.5599 C79.4325,94.3009 79.1325,92.4839 78.8175,92.1719 C78.7555,91.2389 79.0175,89.9819 78.5215,89.4879 C78.1345,87.8829 78.2585,85.7729 77.9235,84.1189 C77.8235,80.1409 76.8145,77.0719 76.7285,73.0819 C77.1725,73.0239 77.0025,72.3629 77.0285,71.8879 C78.2465,69.1279 80.5915,67.4959 81.5015,64.4339 C83.1065,62.0609 84.3885,59.3649 85.9755,56.9729 C87.1595,54.1799 88.4155,51.4569 89.8535,48.9179 C90.5705,45.6619 91.7445,42.8559 92.2405,39.3729 C92.0525,35.3839 91.6695,31.5969 91.0445,28.0409 Z" id="Fill-1" fill="#A3CAD8" mask="url(#mask-2)"></path>
            </g>
        </g>
    </g>
</svg>